:FULLY-SPECIFIED
:FORCE-ALL-JOINTS-BE-3DOF
:DEGREES
238
root 5.63416 15.6805 -25.8492 10.5594 14.4943 -7.69601
lfemur -39.5017 37.4365 0.287585
ltibia 56.7197 0 0
lfoot -12.3681 7.77139 0
ltoes -22.8393 0 0
rfemur -23.3527 -19.9898 5.80168
rtibia 37.6888 0 0
rfoot -31.6925 3.96975 0
rtoes 57.6482 0 0
lowerback 1.56837 -1.88644 2.48656
upperback -0.586732 -2.43597 2.53945
thorax -1.47399 -1.22761 1.28017
lowerneck -12.142 -0.729497 0.497266
upperneck 0.768257 -1.03245 0.100056
head 2.31674 -0.507163 -0.118045
lclavicle 1.6306e-14 -1.90261e-14 0
lhumerus -53.6149 -38.1653 121.247
lradius 61.1403 0 0
lwrist 18.2489 0 0
lhand 11.316 14.9495 0
lfingers 7.12502 0 0
lthumb 36.4292 41.5921 0
rclavicle 1.6306e-14 -1.90261e-14 0
rhumerus -35.2908 0.786536 -72.9347
rradius 111.6 0 0
rwrist -30.7845 0 0
rhand 53.9316 -26.0482 0
rfingers 7.12502 0 0
rthumb 74.3421 -759.041 0
239
root 5.73532 15.7142 -25.8391 10.4672 14.0323 -7.93261
lfemur -39.6478 37.709 0.486009
ltibia 56.8734 0 0
lfoot -12.3978 8.03186 0
ltoes -23.6262 0 0
rfemur -23.1171 -20.1299 5.74752
rtibia 37.3113 0 0
rfoot -32.0522 4.02037 0
rtoes 58.1507 0 0
lowerback 1.53055 -1.865 2.53209
upperback -0.604184 -2.40535 2.57941
thorax -1.47139 -1.21271 1.29242
lowerneck -12.2001 -0.64107 0.537844
upperneck 0.765647 -0.915854 0.0563047
head 2.31916 -0.449579 -0.134377
lclavicle 1.62556e-14 -1.93065e-14 0
lhumerus -53.6835 -38.186 121.363
lradius 61.1584 0 0
lwrist 18.2272 0 0
lhand 11.244 14.9446 0
lfingers 7.12502 0 0
lthumb 36.3624 41.6148 0
rclavicle 1.62556e-14 -1.93065e-14 0
rhumerus -35.1434 0.786976 -72.7882
rradius 112.206 0 0
rwrist -31.2919 0 0
rhand 54.6707 -26.2841 0
rfingers 7.12502 0 0
rthumb 75.0241 -759.212 0
240
root 5.83647 15.748 -25.8289 10.3653 13.6153 -8.13159
lfemur -39.6982 37.8655 0.648265
ltibia 56.9028 0 0
lfoot -12.4814 8.22027 0
ltoes -24.1 0 0
rfemur -22.8807 -20.2145 5.65629
rtibia 37.0127 0 0
rfoot -32.2881 4.05322 0
rtoes 58.5145 0 0
lowerback 1.4861 -1.84445 2.56339
upperback -0.622518 -2.37617 2.6023
thorax -1.46596 -1.19846 1.29478
lowerneck -12.2507 -0.565431 0.584905
upperneck 0.772102 -0.817554 0.0171359
head 2.32364 -0.40077 -0.151345
lclavicle 1.60697e-14 -1.94707e-14 0
lhumerus -53.7592 -38.2111 121.467
lradius 61.1657 0 0
lwrist 18.2243 0 0
lhand 11.2104 14.9604 0
lfingers 7.12502 0 0
lthumb 36.3302 41.6354 0
rclavicle 1.60697e-14 -1.94707e-14 0
rhumerus -34.96 0.70809 -72.5116
rradius 112.567 0 0
rwrist -31.6095 0 0
rhand 55.0399 -26.5367 0
rfingers 7.12502 0 0
rthumb 75.3635 -759.111 0
241
root 5.93763 15.7817 -25.8188 10.2567 13.3221 -8.27861
lfemur -39.6601 37.8881 0.737457
ltibia 56.8028 0 0
lfoot -12.6144 8.30868 0
ltoes -24.1397 0 0
rfemur -22.6381 -20.1983 5.5282
rtibia 36.8389 0 0
rfoot -32.3082 4.02899 0
rtoes 58.6188 0 0
lowerback 1.43791 -1.82672 2.57447
upperback -0.641319 -2.3511 2.61137
thorax -1.45839 -1.18613 1.29418
lowerneck -12.2885 -0.518127 0.630132
upperneck 0.789403 -0.757339 -0.0157604
head 2.33031 -0.370648 -0.167966
lclavicle 1.5689e-14 -1.94865e-14 0
lhumerus -53.8327 -38.2292 121.553
lradius 61.1647 0 0
lwrist 18.2404 0 0
lhand 11.1996 14.986 0
lfingers 7.12502 0 0
lthumb 36.3179 41.6485 0
rclavicle 1.5689e-14 -1.94865e-14 0
rhumerus -34.7698 0.552308 -72.1244
rradius 112.565 0 0
rwrist -31.6006 0 0
rhand 54.9435 -26.7407 0
rfingers 7.12502 0 0
rthumb 75.2729 -758.777 0
242
root 6.03879 15.8155 -25.8087 10.1445 13.231 -8.35931
lfemur -39.5406 37.7591 0.716683
ltibia 56.568 0 0
lfoot -12.7919 8.26913 0
ltoes -23.6244 0 0
rfemur -22.384 -20.0362 5.36351
rtibia 36.8355 0 0
rfoot -32.0205 3.90839 0
rtoes 58.3425 0 0
lowerback 1.38889 -1.81372 2.55932
upperback -0.660171 -2.33285 2.60983
thorax -1.44937 -1.177 1.29755
lowerneck -12.3081 -0.514704 0.665209
upperneck 0.819333 -0.754997 -0.0406938
head 2.33929 -0.369122 -0.183257
lclavicle 1.50537e-14 -1.93219e-14 0
lhumerus -53.8951 -38.2294 121.616
lradius 61.1578 0 0
lwrist 18.2757 0 0
lhand 11.1959 15.011 0
lfingers 7.12502 0 0
lthumb 36.311 41.6489 0
rclavicle 1.50537e-14 -1.93219e-14 0
rhumerus -34.602 0.322057 -71.6461
rradius 112.078 0 0
rwrist -31.1285 0 0
rhand 54.286 -26.8307 0
rfingers 7.12502 0 0
rthumb 74.6654 -758.252 0
243
root 6.13994 15.8492 -25.7986 10.0315 13.4207 -8.35937
lfemur -39.3469 37.4609 0.549048
ltibia 56.1933 0 0
lfoot -13.0095 8.07369 0
ltoes -22.4331 0 0
rfemur -22.1131 -19.683 5.16244
rtibia 37.0485 0 0
rfoot -31.3329 3.65212 0
rtoes 57.5649 0 0
lowerback 1.34192 -1.80738 2.51194
upperback -0.678659 -2.32411 2.60094
thorax -1.43958 -1.17232 1.31181
lowerneck -12.3041 -0.570709 0.68182
upperneck 0.863672 -0.830314 -0.0559742
head 2.3507 -0.406102 -0.196237
lclavicle 1.41046e-14 -1.89447e-14 0
lhumerus -53.937 -38.2005 121.65
lradius 61.1474 0 0
lwrist 18.3306 0 0
lhand 11.1836 15.0245 0
lfingers 7.12502 0 0
lthumb 36.2948 41.6314 0
rclavicle 1.41046e-14 -1.89447e-14 0
rhumerus -34.4859 0.0197662 -71.0962
rradius 110.987 0 0
rwrist -30.0565 0 0
rhand 52.9717 -26.7415 0
rfingers 7.12502 0 0
rthumb 73.4536 -757.576 0
244
root 6.2411 15.883 -25.7885 9.92079 13.9696 -8.26443
lfemur -39.0861 36.9758 0.197651
ltibia 55.6735 0 0
lfoot -13.2623 7.69442 0
ltoes -20.4449 0 0
rfemur -21.82 -19.0934 4.92522
rtibia 37.5235 0 0
rfoot -30.1536 3.22089 0
rtoes 56.1648 0 0
lowerback 1.2999 -1.80961 2.42634
upperback -0.696368 -2.32757 2.58792
thorax -1.42971 -1.17336 1.34389
lowerneck -12.2711 -0.701689 0.671648
upperneck 0.924203 -1.00308 -0.0599112
head 2.36467 -0.491499 -0.205922
lclavicle 1.2782e-14 -1.83228e-14 0
lhumerus -53.9494 -38.1312 121.649
lradius 61.136 0 0
lwrist 18.4052 0 0
lhand 11.1471 15.0161 0
lfingers 7.12502 0 0
lthumb 36.2548 41.5907 0
rclavicle 1.2782e-14 -1.83228e-14 0
rhumerus -34.4507 -0.352137 -70.4941
rradius 109.172 0 0
rwrist -28.248 0 0
rhand 50.9052 -26.4075 0
rfingers 7.12502 0 0
rthumb 71.5504 -756.789 0
245
root 6.34226 15.9167 -25.7784 9.81532 14.9562 -8.06016
lfemur -38.7655 36.2859 -0.374404
ltibia 55.0033 0 0
lfoot -13.5458 7.10337 0
ltoes -17.539 0 0
rfemur -21.4994 -18.2223 4.65209
rtibia 38.3062 0 0
rfoot -28.3904 2.5754 0
rtoes 54.0215 0 0
lowerback 1.26572 -1.82233 2.29652
upperback -0.712881 -2.34592 2.574
thorax -1.42045 -1.18139 1.40072
lowerneck -12.2037 -0.92319 0.626375
upperneck 1.00271 -1.29308 -0.0508147
head 2.38132 -0.635223 -0.211329
lclavicle 1.10264e-14 -1.74242e-14 0
lhumerus -53.9231 -38.0103 121.608
lradius 61.126 0 0
lwrist 18.4998 0 0
lhand 11.0707 14.9749 0
lfingers 7.12502 0 0
lthumb 36.1764 41.5215 0
rclavicle 1.10264e-14 -1.74242e-14 0
rhumerus -34.5257 -0.791224 -69.8593
rradius 106.512 0 0
rwrist -25.5664 0 0
rhand 47.9907 -25.7635 0
rfingers 7.12502 0 0
rthumb 68.8687 -755.931 0
246
root 6.44341 15.9505 -25.7682 9.71807 16.4592 -7.73221
lfemur -38.3922 35.3737 -1.20402
ltibia 54.1776 0 0
lfoot -13.8552 6.2726 0
ltoes -13.5943 0 0
rfemur -21.1459 -17.0244 4.34329
rtibia 39.4426 0 0
rfoot -25.9515 1.67636 0
rtoes 51.014 0 0
lowerback 1.24229 -1.84746 2.11648
upperback -0.727784 -2.38185 2.56243
thorax -1.41249 -1.19768 1.48921
lowerneck -12.0966 -1.25076 0.537687
upperneck 1.10097 -1.7201 -0.0269944
head 2.40077 -0.847185 -0.211476
lclavicle 8.77847e-15 -1.62167e-14 0
lhumerus -53.8489 -37.8269 121.521
lradius 61.12 0 0
lwrist 18.6146 0 0
lhand 10.9388 14.8905 0
lfingers 7.12502 0 0
lthumb 36.0451 41.4186 0
rclavicle 8.77847e-15 -1.62167e-14 0
rhumerus -34.74 -1.29507 -69.2113
rradius 102.889 0 0
rwrist -21.8748 0 0
rhand 44.1328 -24.7442 0
rfingers 7.12502 0 0
rthumb 65.3212 -755.044 0
247
root 6.54457 15.9842 -25.7581 9.63204 18.557 -7.26623
lfemur -37.9733 34.2213 -2.32809
ltibia 53.1912 0 0
lfoot -14.1859 5.17416 0
ltoes -8.49001 0 0
rfemur -20.7543 -15.4547 3.99903
rtibia 40.9783 0 0
rfoot -22.7448 0.484472 0
rtoes 47.0213 0 0
lowerback 1.23248 -1.88692 1.88022
upperback -0.74066 -2.43805 2.55643
thorax -1.40652 -1.22348 1.6163
lowerneck -11.9443 -1.69994 0.397265
upperneck 1.22076 -2.30393 0.0132399
head 2.42315 -1.13729 -0.205381
lclavicle 5.9786e-15 -1.46683e-14 0
lhumerus -53.7178 -37.5696 121.382
lradius 61.1202 0 0
lwrist 18.75 0 0
lhand 10.7358 14.752 0
lfingers 7.12502 0 0
lthumb 35.8461 41.2767 0
rclavicle 5.9786e-15 -1.46683e-14 0
rhumerus -35.1231 -1.86124 -68.5695
rradius 98.1808 0 0
rwrist -17.0367 0 0
rhand 39.2357 -23.2841 0
rfingers 7.12502 0 0
rthumb 60.8209 -754.168 0
